<svg xmlns="http://www.w3.org/2000/svg" xmlns:xlink="http://www.w3.org/1999/xlink" width="150" zoomAndPan="magnify" viewBox="0 0 112.5 37.5" height="50" preserveAspectRatio="xMidYMid meet" version="1.0"><defs><g/></defs><g fill="#ffffff" fill-opacity="1"><g transform="translate(5.167172, 25.112125)"><g><path d="M 7.0625 0.09375 C 6.1875 0.09375 5.351562 -0.0820312 4.5625 -0.4375 C 3.78125 -0.800781 3.09375 -1.296875 2.5 -1.921875 C 1.90625 -2.554688 1.441406 -3.296875 1.109375 -4.140625 C 0.773438 -4.984375 0.609375 -5.894531 0.609375 -6.875 C 0.609375 -7.8125 0.773438 -8.691406 1.109375 -9.515625 C 1.441406 -10.335938 1.90625 -11.0625 2.5 -11.6875 C 3.101562 -12.3125 3.804688 -12.800781 4.609375 -13.15625 C 5.421875 -13.519531 6.296875 -13.703125 7.234375 -13.703125 C 8.515625 -13.703125 9.609375 -13.425781 10.515625 -12.875 C 11.429688 -12.332031 12.117188 -11.617188 12.578125 -10.734375 L 10.609375 -9.265625 C 10.265625 -9.941406 9.78125 -10.457031 9.15625 -10.8125 C 8.539062 -11.175781 7.867188 -11.359375 7.140625 -11.359375 C 6.566406 -11.359375 6.039062 -11.234375 5.5625 -10.984375 C 5.09375 -10.742188 4.6875 -10.414062 4.34375 -10 C 4 -9.582031 3.734375 -9.097656 3.546875 -8.546875 C 3.367188 -7.992188 3.28125 -7.410156 3.28125 -6.796875 C 3.28125 -6.148438 3.378906 -5.550781 3.578125 -5 C 3.773438 -4.445312 4.054688 -3.96875 4.421875 -3.5625 C 4.785156 -3.15625 5.207031 -2.832031 5.6875 -2.59375 C 6.175781 -2.351562 6.710938 -2.234375 7.296875 -2.234375 C 7.984375 -2.234375 8.644531 -2.410156 9.28125 -2.765625 C 9.914062 -3.128906 10.503906 -3.65625 11.046875 -4.34375 L 11.046875 -1.75 C 9.910156 -0.519531 8.582031 0.09375 7.0625 0.09375 Z M 10.859375 -5.0625 L 8.125 -5.0625 L 8.125 -6.984375 L 13.046875 -6.984375 L 13.046875 0 L 10.859375 0 Z M 10.859375 -5.0625 "/></g></g></g><g fill="#ffffff" fill-opacity="1"><g transform="translate(19.05477, 25.112125)"><g><path d="M 1.421875 0 L 1.421875 -13.59375 L 7.4375 -13.59375 C 8.0625 -13.59375 8.640625 -13.460938 9.171875 -13.203125 C 9.703125 -12.953125 10.160156 -12.609375 10.546875 -12.171875 C 10.929688 -11.742188 11.226562 -11.257812 11.4375 -10.71875 C 11.65625 -10.1875 11.765625 -9.640625 11.765625 -9.078125 C 11.765625 -8.503906 11.664062 -7.953125 11.46875 -7.421875 C 11.269531 -6.890625 10.984375 -6.425781 10.609375 -6.03125 C 10.242188 -5.632812 9.8125 -5.328125 9.3125 -5.109375 L 12.40625 0 L 9.5 0 L 6.703125 -4.5625 L 4.0625 -4.5625 L 4.0625 0 Z M 4.0625 -6.875 L 7.375 -6.875 C 7.707031 -6.875 8 -6.972656 8.25 -7.171875 C 8.507812 -7.367188 8.710938 -7.632812 8.859375 -7.96875 C 9.015625 -8.300781 9.09375 -8.671875 9.09375 -9.078125 C 9.09375 -9.515625 9.003906 -9.894531 8.828125 -10.21875 C 8.648438 -10.539062 8.421875 -10.796875 8.140625 -10.984375 C 7.867188 -11.179688 7.578125 -11.28125 7.265625 -11.28125 L 4.0625 -11.28125 Z M 4.0625 -6.875 "/></g></g></g><g fill="#ffffff" fill-opacity="1"><g transform="translate(32.533956, 25.543136)"><g><path d="M 2.640625 -13.421875 C 2.816406 -13.421875 3.003906 -13.375 3.203125 -13.28125 C 3.398438 -13.1875 3.550781 -13.0625 3.65625 -12.90625 L 8.3125 -5.75 L 7.359375 -5.78125 L 12.125 -12.90625 C 12.363281 -13.25 12.675781 -13.421875 13.0625 -13.421875 C 13.375 -13.421875 13.648438 -13.3125 13.890625 -13.09375 C 14.128906 -12.882812 14.25 -12.609375 14.25 -12.265625 L 14.25 -1.171875 C 14.25 -0.835938 14.140625 -0.554688 13.921875 -0.328125 C 13.703125 -0.109375 13.414062 0 13.0625 0 C 12.707031 0 12.414062 -0.109375 12.1875 -0.328125 C 11.96875 -0.554688 11.859375 -0.835938 11.859375 -1.171875 L 11.859375 -10.1875 L 12.609375 -10.015625 L 8.703125 -4.0625 C 8.585938 -3.914062 8.441406 -3.789062 8.265625 -3.6875 C 8.085938 -3.59375 7.910156 -3.550781 7.734375 -3.5625 C 7.566406 -3.550781 7.394531 -3.59375 7.21875 -3.6875 C 7.050781 -3.789062 6.910156 -3.914062 6.796875 -4.0625 L 3.140625 -9.84375 L 3.640625 -10.859375 L 3.640625 -1.171875 C 3.640625 -0.835938 3.535156 -0.554688 3.328125 -0.328125 C 3.128906 -0.109375 2.863281 0 2.53125 0 C 2.207031 0 1.941406 -0.109375 1.734375 -0.328125 C 1.535156 -0.554688 1.4375 -0.835938 1.4375 -1.171875 L 1.4375 -12.265625 C 1.4375 -12.578125 1.550781 -12.847656 1.78125 -13.078125 C 2.019531 -13.304688 2.304688 -13.421875 2.640625 -13.421875 Z M 2.640625 -13.421875 "/></g></g></g><g fill="#ffffff" fill-opacity="1"><g transform="translate(48.222153, 25.543136)"><g><path d="M 9.640625 -10.4375 C 9.972656 -10.4375 10.242188 -10.328125 10.453125 -10.109375 C 10.671875 -9.890625 10.78125 -9.609375 10.78125 -9.265625 L 10.78125 -1.171875 C 10.78125 -0.835938 10.671875 -0.554688 10.453125 -0.328125 C 10.242188 -0.109375 9.972656 0 9.640625 0 C 9.304688 0 9.03125 -0.109375 8.8125 -0.328125 C 8.59375 -0.554688 8.484375 -0.835938 8.484375 -1.171875 L 8.484375 -2.109375 L 8.90625 -1.9375 C 8.90625 -1.769531 8.816406 -1.566406 8.640625 -1.328125 C 8.460938 -1.097656 8.21875 -0.863281 7.90625 -0.625 C 7.601562 -0.394531 7.242188 -0.203125 6.828125 -0.046875 C 6.410156 0.109375 5.960938 0.1875 5.484375 0.1875 C 4.597656 0.1875 3.796875 -0.0351562 3.078125 -0.484375 C 2.367188 -0.941406 1.804688 -1.566406 1.390625 -2.359375 C 0.972656 -3.160156 0.765625 -4.078125 0.765625 -5.109375 C 0.765625 -6.160156 0.972656 -7.082031 1.390625 -7.875 C 1.804688 -8.675781 2.363281 -9.300781 3.0625 -9.75 C 3.769531 -10.207031 4.550781 -10.4375 5.40625 -10.4375 C 5.945312 -10.4375 6.445312 -10.351562 6.90625 -10.1875 C 7.375 -10.019531 7.773438 -9.804688 8.109375 -9.546875 C 8.453125 -9.296875 8.710938 -9.039062 8.890625 -8.78125 C 9.078125 -8.519531 9.171875 -8.300781 9.171875 -8.125 L 8.484375 -7.875 L 8.484375 -9.265625 C 8.484375 -9.597656 8.59375 -9.875 8.8125 -10.09375 C 9.03125 -10.320312 9.304688 -10.4375 9.640625 -10.4375 Z M 5.765625 -1.921875 C 6.328125 -1.921875 6.816406 -2.0625 7.234375 -2.34375 C 7.660156 -2.625 7.988281 -3.003906 8.21875 -3.484375 C 8.457031 -3.972656 8.578125 -4.515625 8.578125 -5.109375 C 8.578125 -5.722656 8.457031 -6.269531 8.21875 -6.75 C 7.988281 -7.238281 7.660156 -7.625 7.234375 -7.90625 C 6.816406 -8.1875 6.328125 -8.328125 5.765625 -8.328125 C 5.210938 -8.328125 4.722656 -8.1875 4.296875 -7.90625 C 3.878906 -7.625 3.550781 -7.238281 3.3125 -6.75 C 3.082031 -6.269531 2.96875 -5.722656 2.96875 -5.109375 C 2.96875 -4.515625 3.082031 -3.972656 3.3125 -3.484375 C 3.550781 -3.003906 3.878906 -2.625 4.296875 -2.34375 C 4.722656 -2.0625 5.210938 -1.921875 5.765625 -1.921875 Z M 5.765625 -1.921875 "/></g></g></g><g fill="#ffffff" fill-opacity="1"><g transform="translate(60.251685, 25.543136)"><g><path d="M 1.453125 -10.25 C 1.828125 -10.25 2.140625 -10.085938 2.390625 -9.765625 L 8.796875 -1.8125 C 8.960938 -1.613281 9.046875 -1.382812 9.046875 -1.125 C 9.046875 -0.8125 8.921875 -0.539062 8.671875 -0.3125 C 8.429688 -0.0820312 8.164062 0.03125 7.875 0.03125 C 7.5 0.03125 7.1875 -0.128906 6.9375 -0.453125 L 0.53125 -8.40625 C 0.363281 -8.613281 0.28125 -8.84375 0.28125 -9.09375 C 0.28125 -9.425781 0.398438 -9.703125 0.640625 -9.921875 C 0.878906 -10.140625 1.148438 -10.25 1.453125 -10.25 Z M 1.46875 0.015625 C 1.21875 0.015625 0.96875 -0.0820312 0.71875 -0.28125 C 0.46875 -0.476562 0.34375 -0.71875 0.34375 -1 C 0.34375 -1.25 0.4375 -1.488281 0.625 -1.71875 L 3.5625 -5.3125 L 4.71875 -3.390625 L 2.390625 -0.453125 C 2.148438 -0.140625 1.84375 0.015625 1.46875 0.015625 Z M 7.859375 -10.25 C 8.160156 -10.25 8.414062 -10.140625 8.625 -9.921875 C 8.84375 -9.710938 8.953125 -9.476562 8.953125 -9.21875 C 8.953125 -9.082031 8.929688 -8.953125 8.890625 -8.828125 C 8.847656 -8.703125 8.773438 -8.582031 8.671875 -8.46875 L 5.78125 -4.9375 L 4.578125 -6.609375 L 6.9375 -9.734375 C 7.1875 -10.078125 7.492188 -10.25 7.859375 -10.25 Z M 7.859375 -10.25 "/></g></g></g><g fill="#ffffff" fill-opacity="1"><g transform="translate(69.580321, 25.543136)"><g><path d="M 6.96875 -13.40625 C 7.632812 -13.40625 8.257812 -13.210938 8.84375 -12.828125 C 9.425781 -12.453125 9.894531 -11.9375 10.25 -11.28125 C 10.601562 -10.632812 10.78125 -9.90625 10.78125 -9.09375 C 10.78125 -8.300781 10.601562 -7.578125 10.25 -6.921875 C 9.894531 -6.273438 9.425781 -5.753906 8.84375 -5.359375 C 8.257812 -4.972656 7.632812 -4.78125 6.96875 -4.78125 L 3.453125 -4.78125 L 3.640625 -5.140625 L 3.640625 -1.171875 C 3.640625 -0.835938 3.535156 -0.554688 3.328125 -0.328125 C 3.128906 -0.109375 2.863281 0 2.53125 0 C 2.207031 0 1.941406 -0.109375 1.734375 -0.328125 C 1.535156 -0.554688 1.4375 -0.835938 1.4375 -1.171875 L 1.4375 -12.234375 C 1.4375 -12.566406 1.546875 -12.84375 1.765625 -13.0625 C 1.992188 -13.289062 2.273438 -13.40625 2.609375 -13.40625 Z M 6.96875 -6.96875 C 7.21875 -6.96875 7.457031 -7.066406 7.6875 -7.265625 C 7.914062 -7.472656 8.101562 -7.738281 8.25 -8.0625 C 8.40625 -8.394531 8.484375 -8.738281 8.484375 -9.09375 C 8.484375 -9.46875 8.40625 -9.8125 8.25 -10.125 C 8.101562 -10.445312 7.914062 -10.707031 7.6875 -10.90625 C 7.457031 -11.101562 7.21875 -11.203125 6.96875 -11.203125 L 3.40625 -11.203125 L 3.640625 -11.546875 L 3.640625 -6.671875 L 3.421875 -6.96875 Z M 6.96875 -6.96875 "/></g></g></g><g fill="#ffffff" fill-opacity="1"><g transform="translate(81.130972, 25.543136)"><g><path d="M 3.734375 -1.171875 C 3.734375 -0.835938 3.617188 -0.554688 3.390625 -0.328125 C 3.171875 -0.109375 2.894531 0 2.5625 0 C 2.25 0 1.984375 -0.109375 1.765625 -0.328125 C 1.546875 -0.554688 1.4375 -0.835938 1.4375 -1.171875 L 1.4375 -13 C 1.4375 -13.332031 1.546875 -13.609375 1.765625 -13.828125 C 1.992188 -14.054688 2.273438 -14.171875 2.609375 -14.171875 C 2.941406 -14.171875 3.210938 -14.054688 3.421875 -13.828125 C 3.628906 -13.609375 3.734375 -13.332031 3.734375 -13 Z M 3.734375 -1.171875 "/></g></g></g><g fill="#ffffff" fill-opacity="1"><g transform="translate(86.302902, 25.543136)"><g><path d="M 8.84375 -10.25 C 9.175781 -10.25 9.453125 -10.132812 9.671875 -9.90625 C 9.890625 -9.6875 10 -9.410156 10 -9.078125 L 10 -4.21875 C 10 -2.863281 9.617188 -1.789062 8.859375 -1 C 8.109375 -0.207031 7.023438 0.1875 5.609375 0.1875 C 4.191406 0.1875 3.109375 -0.207031 2.359375 -1 C 1.617188 -1.789062 1.25 -2.863281 1.25 -4.21875 L 1.25 -9.078125 C 1.25 -9.410156 1.351562 -9.6875 1.5625 -9.90625 C 1.78125 -10.132812 2.054688 -10.25 2.390625 -10.25 C 2.722656 -10.25 3 -10.132812 3.21875 -9.90625 C 3.4375 -9.6875 3.546875 -9.410156 3.546875 -9.078125 L 3.546875 -4.21875 C 3.546875 -3.4375 3.71875 -2.859375 4.0625 -2.484375 C 4.40625 -2.109375 4.921875 -1.921875 5.609375 -1.921875 C 6.316406 -1.921875 6.84375 -2.109375 7.1875 -2.484375 C 7.53125 -2.859375 7.703125 -3.4375 7.703125 -4.21875 L 7.703125 -9.078125 C 7.703125 -9.410156 7.8125 -9.6875 8.03125 -9.90625 C 8.25 -10.132812 8.519531 -10.25 8.84375 -10.25 Z M 8.84375 -10.25 "/></g></g></g><g fill="#ffffff" fill-opacity="1"><g transform="translate(97.54707, 25.543136)"><g><path d="M 0.65625 -1.59375 C 0.519531 -1.769531 0.457031 -2 0.46875 -2.28125 C 0.488281 -2.5625 0.660156 -2.800781 0.984375 -3 C 1.179688 -3.132812 1.394531 -3.191406 1.625 -3.171875 C 1.851562 -3.148438 2.078125 -3.03125 2.296875 -2.8125 C 2.671875 -2.445312 3.0625 -2.160156 3.46875 -1.953125 C 3.875 -1.742188 4.382812 -1.640625 5 -1.640625 C 5.1875 -1.660156 5.394531 -1.691406 5.625 -1.734375 C 5.863281 -1.773438 6.066406 -1.875 6.234375 -2.03125 C 6.410156 -2.195312 6.5 -2.445312 6.5 -2.78125 C 6.5 -3.0625 6.398438 -3.285156 6.203125 -3.453125 C 6.015625 -3.617188 5.765625 -3.757812 5.453125 -3.875 C 5.140625 -3.988281 4.789062 -4.09375 4.40625 -4.1875 C 4.007812 -4.3125 3.601562 -4.441406 3.1875 -4.578125 C 2.769531 -4.710938 2.390625 -4.890625 2.046875 -5.109375 C 1.703125 -5.335938 1.421875 -5.640625 1.203125 -6.015625 C 0.984375 -6.390625 0.875 -6.851562 0.875 -7.40625 C 0.875 -8.050781 1.050781 -8.597656 1.40625 -9.046875 C 1.769531 -9.492188 2.234375 -9.835938 2.796875 -10.078125 C 3.367188 -10.316406 3.96875 -10.4375 4.59375 -10.4375 C 4.988281 -10.4375 5.40625 -10.390625 5.84375 -10.296875 C 6.28125 -10.203125 6.695312 -10.046875 7.09375 -9.828125 C 7.488281 -9.617188 7.816406 -9.34375 8.078125 -9 C 8.222656 -8.8125 8.304688 -8.582031 8.328125 -8.3125 C 8.359375 -8.039062 8.238281 -7.796875 7.96875 -7.578125 C 7.78125 -7.429688 7.554688 -7.363281 7.296875 -7.375 C 7.046875 -7.394531 6.835938 -7.484375 6.671875 -7.640625 C 6.453125 -7.921875 6.160156 -8.144531 5.796875 -8.3125 C 5.429688 -8.476562 5.015625 -8.5625 4.546875 -8.5625 C 4.347656 -8.5625 4.132812 -8.535156 3.90625 -8.484375 C 3.6875 -8.441406 3.492188 -8.347656 3.328125 -8.203125 C 3.160156 -8.054688 3.078125 -7.828125 3.078125 -7.515625 C 3.078125 -7.210938 3.171875 -6.972656 3.359375 -6.796875 C 3.554688 -6.628906 3.816406 -6.488281 4.140625 -6.375 C 4.472656 -6.269531 4.820312 -6.171875 5.1875 -6.078125 C 5.570312 -5.972656 5.960938 -5.847656 6.359375 -5.703125 C 6.753906 -5.566406 7.117188 -5.382812 7.453125 -5.15625 C 7.785156 -4.925781 8.050781 -4.628906 8.25 -4.265625 C 8.457031 -3.898438 8.5625 -3.4375 8.5625 -2.875 C 8.5625 -2.21875 8.367188 -1.660156 7.984375 -1.203125 C 7.597656 -0.742188 7.117188 -0.394531 6.546875 -0.15625 C 5.972656 0.0703125 5.382812 0.1875 4.78125 0.1875 C 4.03125 0.1875 3.273438 0.0546875 2.515625 -0.203125 C 1.765625 -0.460938 1.144531 -0.925781 0.65625 -1.59375 Z M 0.65625 -1.59375 "/></g></g></g></svg>